<svg xmlns="http://www.w3.org/2000/svg" version="1.1" xmlns:xlink="http://www.w3.org/1999/xlink" xmlns:svgjs="http://svgjs.dev/svgjs" width="1000" height="1000" viewBox="0 0 1000 1000"><rect width="1000" height="1000" fill="#ffffff"></rect><g transform="matrix(0.7,0,0,0.7,149.57575757575756,282.1265587044535)"><svg viewBox="0 0 396 247" data-background-color="#ffffff" preserveAspectRatio="xMidYMid meet" height="623" width="1000" xmlns="http://www.w3.org/2000/svg" xmlns:xlink="http://www.w3.org/1999/xlink"><g id="tight-bounds" transform="matrix(1,0,0,1,0.2400000000000091,-0.09999999999999432)"><svg viewBox="0 0 395.52 247.2" height="247.2" width="395.52"><g><svg></svg></g><g><svg viewBox="0 0 395.52 247.2" height="247.2" width="395.52"><g transform="matrix(1,0,0,1,75.54432000000001,113.60091720866276)"><svg viewBox="0 0 244.43135999999996 19.998165582674456" height="19.998165582674456" width="244.43135999999996"><g><svg viewBox="0 0 244.43135999999996 19.998165582674456" height="19.998165582674456" width="244.43135999999996"><g><svg viewBox="0 0 244.43135999999996 19.998165582674456" height="19.998165582674456" width="244.43135999999996"><g><svg viewBox="0 0 244.43135999999996 19.998165582674456" height="19.998165582674456" width="244.43135999999996"><g><svg viewBox="0 0 244.43135999999996 19.998165582674456" height="19.998165582674456" width="244.43135999999996"><g><svg viewBox="0 0 244.43135999999996 19.998165582674456" height="19.998165582674456" width="244.43135999999996"><g transform="matrix(1,0,0,1,0,0)"><svg width="244.43135999999996" viewBox="3 -35 436.30999755859375 35.70000076293945" height="19.998165582674456" data-palette-color="#ecab55"><path d="M20.05-32.6Q16.2-32.6 12.98-30.68 9.75-28.75 7.83-25.23 5.9-21.7 5.9-17.15L5.9-17.15Q5.9-12.6 7.8-9.1 9.7-5.6 13-3.68 16.3-1.75 20.35-1.75L20.35-1.75Q24.15-1.75 27.18-2.88 30.2-4 32.2-5.8L32.2-5.8 32.2-14.2 19.7-14.2 19.7-16.55 34.85-16.55 34.85-4.75Q32.35-2.35 28.6-0.83 24.85 0.7 20.35 0.7L20.35 0.7Q15.5 0.7 11.55-1.53 7.6-3.75 5.3-7.8 3-11.85 3-17.15L3-17.15Q3-22.4 5.3-26.45 7.6-30.5 11.43-32.75 15.25-35 19.65-35L19.65-35Q24-35 27.23-33.3 30.45-31.6 32.35-28.95L32.35-28.95 32.35-34.3 34.85-34.3 34.85-24.2 33.25-24.05Q31.2-28.05 28-30.33 24.8-32.6 20.05-32.6L20.05-32.6ZM54.6 0.7Q51.2 0.65 48.32-0.9 45.45-2.45 43.77-5.28 42.1-8.1 42.1-11.75L42.1-11.75Q42.1-15.45 43.77-18.28 45.45-21.1 48.32-22.63 51.2-24.15 54.6-24.2L54.6-24.2Q57.95-24.15 60.8-22.63 63.65-21.1 65.35-18.28 67.05-15.45 67.05-11.75L67.05-11.75Q67.05-8.1 65.37-5.28 63.7-2.45 60.85-0.9 58 0.65 54.6 0.7L54.6 0.7ZM54.6-1.65Q57.4-1.65 59.57-2.93 61.75-4.2 63-6.48 64.25-8.75 64.25-11.75L64.25-11.75Q64.25-14.75 63-17.03 61.75-19.3 59.57-20.58 57.4-21.85 54.6-21.85L54.6-21.85Q51.8-21.85 49.6-20.58 47.4-19.3 46.15-17.03 44.9-14.75 44.9-11.75L44.9-11.75Q44.9-8.75 46.15-6.48 47.4-4.2 49.6-2.93 51.8-1.65 54.6-1.65L54.6-1.65ZM92.15-24.2L93.65-24.2 93.65-14.9 91.1-14.9 91.1-21.55Q88.2-21.5 85.5-19.8 82.8-18.1 79.85-14.85L79.85-14.85 79.85-2.35 85.7-2.35 85.7 0 71.3 0 71.3-2.35 77.1-2.35 77.1-21.2 71.3-21.2 71.3-23.55 79.85-23.55 79.85-17.2Q82.8-20.55 85.82-22.38 88.85-24.2 92.15-24.2L92.15-24.2ZM104.49-30.25Q103.24-30.25 102.39-30.93 101.54-31.6 101.54-32.6L101.54-32.6Q101.54-33.6 102.39-34.3 103.24-35 104.49-35L104.49-35Q105.84-35 106.72-34.33 107.59-33.65 107.59-32.6L107.59-32.6Q107.59-31.6 106.74-30.93 105.89-30.25 104.49-30.25L104.49-30.25ZM106.54-2.35L112.39-2.35 112.39 0 97.99 0 97.99-2.35 103.79-2.35 103.79-21.2 97.99-21.2 97.99-23.55 106.54-23.55 106.54-2.35ZM143.04-2.35L148.19-2.35 148.19 0 135.54 0 135.54-2.35 140.29-2.35 140.29-14.65Q140.29-21.65 134.34-21.65L134.34-21.65Q131.79-21.65 129.04-20 126.29-18.35 123.64-15.5L123.64-15.5 123.64-2.35 128.39-2.35 128.39 0 115.09 0 115.09-2.35 120.89-2.35 120.89-21.2 115.09-21.2 115.09-23.55 123.64-23.55 123.64-17.85Q126.49-20.9 129.29-22.55 132.09-24.2 135.14-24.2L135.14-24.2Q138.84-24.2 140.94-21.85 143.04-19.5 143.04-14.9L143.04-14.9 143.04-2.35ZM177.09-2.6L177.74-0.5Q176.49 0.35 174.69 0.35L174.69 0.35Q173.04 0.35 171.96-0.7 170.89-1.75 170.64-3.7L170.64-3.7Q164.99 0.65 160.44 0.65L160.44 0.65Q156.89 0.65 154.41-1.3 151.94-3.25 151.94-6.65L151.94-6.65Q151.94-8.9 153.24-10.63 154.54-12.35 156.79-13.3 159.04-14.25 161.84-14.25L161.84-14.25Q164.14-14.25 166.16-13.83 168.19-13.4 170.54-12.55L170.54-12.55 170.54-15.3Q170.54-18.7 168.66-20.23 166.79-21.75 163.79-21.75L163.79-21.75Q161.29-21.75 158.94-21.15 156.59-20.55 153.99-19.4L153.99-19.4 153.34-21.7Q159.04-24.2 163.99-24.2L163.99-24.2Q168.14-24.2 170.66-22 173.19-19.8 173.19-15.2L173.19-15.2 173.19-5.3Q173.19-2.05 175.24-2.05L175.24-2.05Q175.99-2.05 177.09-2.6L177.09-2.6ZM154.69-6.7Q154.69-4.35 156.46-3.05 158.24-1.75 160.84-1.75L160.84-1.75Q165.19-1.75 170.54-5.8L170.54-5.8 170.54-10.45Q166.09-12 161.94-12L161.94-12Q158.94-12 156.81-10.6 154.69-9.2 154.69-6.7L154.69-6.7ZM208.24-2.35L213.38-2.35 213.38 0 200.74 0 200.74-2.35 205.49-2.35 205.49-14.65Q205.49-21.65 199.53-21.65L199.53-21.65Q196.99-21.65 194.24-20 191.49-18.35 188.84-15.5L188.84-15.5 188.84-2.35 193.59-2.35 193.59 0 180.28 0 180.28-2.35 186.09-2.35 186.09-21.2 180.28-21.2 180.28-23.55 188.84-23.55 188.84-17.85Q191.69-20.9 194.49-22.55 197.28-24.2 200.34-24.2L200.34-24.2Q204.03-24.2 206.13-21.85 208.24-19.5 208.24-14.9L208.24-14.9 208.24-2.35ZM244.03-2.45L244.63-0.2Q243.28 0.6 241.63 0.6L241.63 0.6Q239.88 0.6 238.78-0.48 237.68-1.55 237.43-3.5L237.43-3.5Q235.23-1.65 232.93-0.5 230.63 0.65 227.88 0.65L227.88 0.65Q224.83 0.65 222.31-0.83 219.78-2.3 218.28-5.03 216.78-7.75 216.78-11.3L216.78-11.3Q216.78-15.1 218.41-18.03 220.03-20.95 222.78-22.58 225.53-24.2 228.73-24.2L228.73-24.2Q231.28-24.2 233.36-23.25 235.43-22.3 237.33-20.65L237.33-20.65 237.33-31.95 231.53-31.95 231.53-34.3 240.03-34.3 240.03-5Q240.03-1.9 242.03-1.9L242.03-1.9Q243.33-1.9 244.03-2.45L244.03-2.45ZM219.58-11.35Q219.58-8.5 220.71-6.33 221.83-4.15 223.76-2.95 225.68-1.75 228.08-1.75L228.08-1.75Q232.83-1.75 237.33-5.8L237.33-5.8 237.33-18.35Q233.43-21.8 229.08-21.8L229.08-21.8Q226.48-21.8 224.31-20.45 222.13-19.1 220.86-16.73 219.58-14.35 219.58-11.35L219.58-11.35ZM273.93-2.6L274.58-0.5Q273.33 0.35 271.53 0.35L271.53 0.35Q269.88 0.35 268.81-0.7 267.73-1.75 267.48-3.7L267.48-3.7Q261.83 0.65 257.28 0.65L257.28 0.65Q253.73 0.65 251.25-1.3 248.78-3.25 248.78-6.65L248.78-6.65Q248.78-8.9 250.08-10.63 251.38-12.35 253.63-13.3 255.88-14.25 258.68-14.25L258.68-14.25Q260.98-14.25 263-13.83 265.03-13.4 267.38-12.55L267.38-12.55 267.38-15.3Q267.38-18.7 265.5-20.23 263.63-21.75 260.63-21.75L260.63-21.75Q258.13-21.75 255.78-21.15 253.43-20.55 250.83-19.4L250.83-19.4 250.18-21.7Q255.88-24.2 260.83-24.2L260.83-24.2Q264.98-24.2 267.5-22 270.03-19.8 270.03-15.2L270.03-15.2 270.03-5.3Q270.03-2.05 272.08-2.05L272.08-2.05Q272.83-2.05 273.93-2.6L273.93-2.6ZM251.53-6.7Q251.53-4.35 253.31-3.05 255.08-1.75 257.68-1.75L257.68-1.75Q262.03-1.75 267.38-5.8L267.38-5.8 267.38-10.45Q262.93-12 258.78-12L258.78-12Q255.78-12 253.66-10.6 251.53-9.2 251.53-6.7L251.53-6.7ZM305.08-2.35L310.23-2.35 310.23 0 297.58 0 297.58-2.35 302.33-2.35 302.33-14.65Q302.33-21.65 296.38-21.65L296.38-21.65Q293.83-21.65 291.08-20 288.33-18.35 285.68-15.5L285.68-15.5 285.68-2.35 290.43-2.35 290.43 0 277.13 0 277.13-2.35 282.93-2.35 282.93-21.2 277.13-21.2 277.13-23.55 285.68-23.55 285.68-17.85Q288.53-20.9 291.33-22.55 294.13-24.2 297.18-24.2L297.18-24.2Q300.88-24.2 302.98-21.85 305.08-19.5 305.08-14.9L305.08-14.9 305.08-2.35ZM362.77-2.4L369.07-2.4 369.07 0 353.62 0 353.62-2.4 359.77-2.4 355.42-12.8 338.87-12.8 334.52-2.4 340.97-2.4 340.97 0 325.42 0 325.42-2.4 331.82-2.4 344.57-31.95 338.12-31.95 338.12-34.3 356.27-34.3 356.27-31.95 349.87-31.95 362.77-2.4ZM339.82-15.05L354.47-15.05 347.47-31.95 346.82-31.95 339.82-15.05ZM390.27-24.2L391.77-24.2 391.77-14.9 389.22-14.9 389.22-21.55Q386.32-21.5 383.62-19.8 380.92-18.1 377.97-14.85L377.97-14.85 377.97-2.35 383.82-2.35 383.82 0 369.42 0 369.42-2.35 375.22-2.35 375.22-21.2 369.42-21.2 369.42-23.55 377.97-23.55 377.97-17.2Q380.92-20.55 383.94-22.38 386.97-24.2 390.27-24.2L390.27-24.2ZM414.42-3.6L415.47-1.4Q413.57-0.4 411.94 0.13 410.32 0.65 408.27 0.65L408.27 0.65Q404.97 0.65 402.89-1.43 400.82-3.5 400.82-7.7L400.82-7.7 400.82-21.2 395.07-21.2 395.07-23.55 400.82-23.55 400.82-30.1 403.57-30.1 403.57-23.55 412.32-23.55 412.32-21.2 403.57-21.2 403.57-7.6Q403.57-4.5 404.99-3.18 406.42-1.85 408.52-1.85L408.52-1.85Q411.47-1.85 414.42-3.6L414.42-3.6ZM429.41-13.05Q434.11-11.85 436.71-10.18 439.31-8.5 439.31-5.3L439.31-5.3Q439.31-2.45 436.94-0.9 434.56 0.65 431.21 0.65L431.21 0.65Q428.41 0.65 425.54-0.6 422.66-1.85 420.81-3.75L420.81-3.75 420.81 0 418.51 0 418.51-7.45 419.71-7.65Q421.66-4.95 424.76-3.2 427.86-1.45 431.01-1.45L431.01-1.45Q433.31-1.45 434.91-2.43 436.51-3.4 436.51-5.1L436.51-5.1Q436.51-7.25 434.51-8.4 432.51-9.55 428.51-10.6L428.51-10.6Q424.01-11.7 421.39-13.4 418.76-15.1 418.76-18L418.76-18Q418.76-20.65 421.01-22.43 423.26-24.2 426.86-24.2L426.86-24.2Q429.61-24.2 432.11-23.05 434.61-21.9 436.21-20L436.21-20 436.21-23.55 438.51-23.55 438.51-16.1 437.21-15.95Q435.76-18.85 433.01-20.48 430.26-22.1 427.26-22.1L427.26-22.1Q424.81-22.1 423.19-21.05 421.56-20 421.56-18.25L421.56-18.25Q421.56-16.35 423.59-15.23 425.61-14.1 429.41-13.05L429.41-13.05Z" opacity="1" transform="matrix(1,0,0,1,0,0)" fill="#000000" class="undefined-text-0" data-fill-palette-color="primary" id="text-0"></path></svg></g></svg></g></svg></g></svg></g><g></g></svg></g></svg></g></svg></g><g><path d="M109.877 108.88A122.216 122.216 0 0 1 285.643 108.88L283.839 108.88A120.412 120.412 0 0 0 111.681 108.88L109.877 108.88M109.877 138.32A122.216 122.216 0 0 0 285.643 138.32L283.839 138.32A120.412 120.412 0 0 1 111.681 138.32L109.877 138.32" fill="#ecab55" stroke="transparent" data-fill-palette-color="tertiary"></path></g></svg></g><defs></defs></svg><rect width="395.52" height="247.2" fill="none" stroke="none" visibility="hidden"></rect></g></svg></g></svg>